<svg viewBox="0 0 76 76" xmlns="http://www.w3.org/2000/svg" fill="#fff">
  <g fill-rule="nonzero">
    <path d="M76 76H0V0h76v76zM3.92 72.088h68.16V3.912H3.92v68.176z"/>
    <path d="M19.286 44.972c-1.827-.68-3.273-2.112-3.97-3.932-.745-1.953-.745-4.113 0-6.066.35-.896.88-1.71 1.556-2.394.69-.68 1.512-1.21 2.417-1.552 1.978-.742 4.158-.746 6.14-.01 1.824.677 3.27 2.104 3.973 3.92.76 1.97.76 4.154 0 6.125-.702 1.815-2.15 3.242-3.973 3.92-1.982.735-4.162.732-6.14-.01h-.004zm5.133-3.23c.607-.373 1.1-.908 1.42-1.546.672-1.385.672-3.002 0-4.388-.318-.64-.808-1.176-1.415-1.552-1.265-.755-2.843-.75-4.104.01-.606.38-1.097.918-1.42 1.557-.67 1.374-.67 2.98 0 4.354.323.64.814 1.177 1.42 1.556 1.262.762 2.84.766 4.105.01h-.006zM34.37 44.93c-.965-.407-1.84-1.002-2.575-1.75l2.052-2.514c.49.542 1.077.986 1.732 1.31.543.275 1.14.426 1.75.44.333.014.664-.04.974-.16.222-.082.412-.23.544-.427.106-.186.16-.396.152-.61.013-.37-.158-.72-.456-.94-.304-.23-.887-.487-1.748-.77-.36-.12-.678-.235-.96-.346-.28-.11-.584-.247-.91-.412-.296-.146-.58-.314-.85-.503-.254-.182-.492-.386-.71-.61-.224-.224-.416-.48-.57-.76-.154-.292-.274-.603-.355-.924-.092-.368-.138-.747-.135-1.127-.006-.778.22-1.54.646-2.188.437-.667 1.044-1.205 1.758-1.56.757-.382 1.594-.583 2.442-.588 1.85-.026 3.563.61 5.14 1.91l-1.975 2.556c-1.18-.94-2.194-1.41-3.048-1.41-.352-.018-.7.09-.98.305-.243.208-.38.515-.37.834-.005.328.163.635.44.81.305.217.876.488 1.713.81 1.246.476 2.086.835 2.52 1.076.91.507 1.51 1.137 1.797 1.89.177.498.263 1.022.254 1.55.01.62-.105 1.235-.335 1.81-.197.502-.496.958-.88 1.338-.372.356-.797.654-1.26.884-.455.234-.94.407-1.44.514-.484.1-.976.152-1.47.152-.99-.004-1.972-.205-2.885-.593zM61.242 30.67v14.66h-3.46v-8.08h-.04l-3.002 5.39h-2.23l-3-5.38h-.042v8.07H46.01V30.67h3.51l4.09 7.77h.06l4.06-7.77"/>
  </g>
</svg>
